<?xml version="1.0" standalone="no"?>
<!DOCTYPE svg PUBLIC "-//W3C//DTD SVG 20010904//EN"
 "http://www.w3.org/TR/2001/REC-SVG-20010904/DTD/svg10.dtd">
<svg version="1.0" xmlns="http://www.w3.org/2000/svg"
 width="500.000000pt" height="500.000000pt" viewBox="0 0 500.000000 500.000000"
 preserveAspectRatio="xMidYMid meet">
<metadata>
Created by potrace 1.14, written by Peter Selinger 2001-2017
</metadata>
<g transform="translate(0.000000,500.000000) scale(0.100000,-0.100000)"
fill="#000000" stroke="none">
<path d="M1291 4321 c2 -5 147 -138 323 -294 262 -234 325 -286 355 -291 20
-3 182 -6 361 -6 360 0 419 -7 527 -60 34 -17 74 -45 89 -63 124 -146 120
-461 -8 -588 -47 -47 -137 -89 -227 -105 -43 -7 -148 -13 -238 -14 l-163 0 0
-299 0 -299 283 -5 c252 -4 290 -6 355 -26 257 -76 343 -196 343 -476 0 -235
-65 -361 -225 -436 -128 -59 -268 -79 -578 -79 l-178 0 0 -296 0 -296 373 5
c404 5 460 11 637 73 464 163 702 545 660 1060 -35 433 -241 695 -664 848 -16
5 -9 13 40 47 200 138 314 353 332 622 28 414 -108 706 -398 856 -98 51 -176
77 -313 103 -107 20 -147 21 -901 25 -522 3 -787 1 -785 -6z"/>
<path d="M1283 1880 l2 -1185 323 -3 324 -2 -32 26 c-37 32 -68 91 -103 199
-50 153 -79 293 -171 830 -74 432 -83 466 -233 950 -41 132 -79 263 -85 290
-6 28 -14 57 -19 65 -5 8 -7 -509 -6 -1170z"/>
</g>
</svg>
